<?xml version="1.0" encoding="utf-8"?>
<!-- Generator: Adobe Illustrator 16.0.1, SVG Export Plug-In . SVG Version: 6.00 Build 0)  -->
<!DOCTYPE svg PUBLIC "-//W3C//DTD SVG 1.1//EN" "http://www.w3.org/Graphics/SVG/1.1/DTD/svg11.dtd">
<svg version="1.1" id="Layer_1" xmlns="http://www.w3.org/2000/svg" xmlns:xlink="http://www.w3.org/1999/xlink" x="0px" y="0px"
	 width="800px" height="1200px" viewBox="-106 0 800 1200" enable-background="new -106 0 800 1200" xml:space="preserve">
<g>
	<g>
		<g>
			<path fill="#A6C24B" d="M-63.1,18.468h6.646c0,0,1.562-0.083,2.708,1.887c1.15,1.969,5.989,17.231,5.989,17.231
				s1.495,4.795-0.736,5.907c0,0-2.215,1.397-3.613-2.625c-1.395-4.022-3.446-10.914-3.446-10.914s-1.15-0.821-0.984,0.572
				l4.023,13.542c0,0,0.655,1.723-0.82,2.296l-3.611,1.15v23.383c0,0,0.248,3.242-3.24,3.242c0,0-2.586,0.043-2.586-3.242V48.253
				c0,0,0.101-0.419-0.328-0.419V18.468L-63.1,18.468z"/>
			<path fill="#A6C24B" d="M-63.019,18.468h-6.645c0,0-1.562-0.083-2.708,1.887c-1.15,1.969-5.991,17.231-5.991,17.231
				s-1.494,4.795,0.738,5.907c0,0,2.216,1.397,3.611-2.625c1.395-4.022,3.447-10.914,3.447-10.914s1.149-0.821,0.984,0.572
				l-4.022,13.542c0,0-0.655,1.723,0.821,2.296l3.611,1.15v23.383c0,0-0.247,3.242,3.24,3.242c0,0,2.585,0.043,2.585-3.242V48.253
				c0,0-0.102-0.419,0.328-0.419V18.468L-63.019,18.468z"/>
			<circle fill="#A6C24B" cx="-63.1" cy="11.098" r="6.491"/>
			<g>
				<path fill="#A6C24B" d="M-39.123,48.965h2.065c0,0,1.283-0.214,2.352,1.71c1.069,1.923,4.134,7.48,4.134,7.48
					s0.928,2.067-0.928,2.352c0,0-0.952,0.635-2.025-1.638l-1.513-3.344c0,0-0.715-0.712-0.798-0.038c0,0-0.253,0.29,0.251,1.341
					c0.504,1.055,2.397,8.539,2.397,8.539s0.208,0.588-0.968,0.588h-1.598v6.768c0,0-0.043,1.388-1.306,1.388
					c0,0-1.195,0.043-1.195-1.196v-7.002c0,0,0.049-0.462-0.868-0.462c0,0-0.667-0.04-0.667,0.42c0,0.461,0,0.21,0,0.21v6.726
					c0,0,0.043,1.303-1.009,1.303c0,0-1.262,0.339-1.262-1.26c0-1.601,0-6.979,0-6.979h-1.599h-1.305c0,0-0.882,0.083-0.294-0.968
					c0.591-1.052,2.862-7.863,2.525-10.888c-0.337-3.029-6.349-9.756-6.349-9.756s-1.375-1.394,0-2.438
					c0.847-0.644,1.85,0.421,1.85,0.421l4.458,5.549c0,0,0.714,1.177,1.934,1.177L-39.123,48.965z"/>
				<circle fill="#A6C24B" cx="-39.126" cy="45.391" r="3.039"/>
			</g>
		</g>
		<g>
			<path fill="#A6C24B" d="M-82.034,8.969c0,3.851-3.119,6.972-6.969,6.972c-3.849,0-6.969-3.121-6.969-6.972
				C-95.973,5.122-92.853,2-89.004,2C-85.154,2-82.034,5.122-82.034,8.969z"/>
			<g>
				<path fill="#A6C24B" d="M-89.062,17.337h6.156c0,0,8.363-0.581,8.363,8.364v14.984c0,0,0.35,3.137-2.788,3.137
					c-3.135,0-2.904-2.671-2.904-2.671V27.558c0,0,0.466-0.697-0.58-0.697c-1.044,0-0.929,0.814-0.929,0.814v42.749
					c0,0,0.351,3.077-3.08,3.077c-3.426,0-3.542-2.73-3.542-2.73v-23c0,0,0.233-1.278-0.695-1.278L-89.062,17.337L-89.062,17.337z"
					/>
				<path fill="#A6C24B" d="M-88.946,17.337h-6.156c0,0-8.364-0.581-8.364,8.364v14.984c0,0-0.348,3.137,2.789,3.137
					c3.136,0,2.904-2.671,2.904-2.671V27.558c0,0-0.465-0.697,0.581-0.697c1.045,0,0.928,0.814,0.928,0.814v42.749
					c0,0-0.351,3.077,3.078,3.077c3.427,0,3.544-2.73,3.544-2.73v-23c0,0-0.233-1.278,0.694-1.278L-88.946,17.337L-88.946,17.337z"
					/>
			</g>
		</g>
	</g>
</g>
<g>
	<g>
		<path fill="#A6C24B" d="M180.517,31.602c-0.43-0.849-1.604-1.815-1.604-1.815l-4.849-12.905h-0.002
			c-1.006-2.445-3.967-3.733-5.26-3.733h-23.771c-1.291,0-4.254,1.288-5.258,3.733l-4.85,12.905c0,0-1.176,0.967-1.605,1.815
			c-0.429,0.848-0.897,1.604-0.897,7.326c0,5.579,1.125,7.563,2.473,8.251l1.062,0.598v5.18c0,1.681,0.399,2.18,2.006,2.18h3.6
			c1.605,0,2.006-0.499,2.006-2.18v-5.18h26.703v5.18c0,1.681,0.4,2.18,2.006,2.18h3.601c1.604,0,2.006-0.499,2.006-2.18v-5.18
			l1.063-0.598c1.349-0.688,2.472-2.672,2.472-8.251C181.415,33.207,180.946,32.451,180.517,31.602z M141.899,41.617
			c-1.725,0-3.127-1.432-3.127-3.189c0-1.757,1.402-3.188,3.127-3.188c1.726,0,3.127,1.432,3.127,3.188
			C145.026,40.185,143.624,41.617,141.899,41.617z M172.052,41.617c-1.723,0-3.127-1.432-3.127-3.189
			c0-1.757,1.404-3.188,3.127-3.188c1.725,0,3.129,1.432,3.129,3.188C175.181,40.185,173.776,41.617,172.052,41.617z
			 M175.532,29.787h-37.23c0,0-0.889,0.085-0.617-0.889c0.228-0.821,3.426-8.924,4.099-11.148c0.271-0.767,1.817-2.523,3.905-2.394
			h22.457c2.088-0.13,3.634,1.627,3.906,2.394c0.672,2.225,3.871,10.327,4.1,11.148C176.421,29.872,175.532,29.787,175.532,29.787z"
			/>
		<path fill="#A6C24B" d="M98.417,55.142h89c1.104,0,2,0.896,2,2s-0.896,2-2,2h-89c-1.104,0-2-0.896-2-2
			S97.313,55.142,98.417,55.142z"/>
		<g>
			<path fill="#A6C24B" d="M113.091,17.709L101.652,6.13c0,0-2.017-1.782,0-3.627c1.237-1.132,2.65,0,2.65,0l11.579,11.718h4.604
				L130.67,4.037c0,0,1.953-2.093,3.348-0.696c1.396,1.395,0,3.347,0,3.347l-11.299,11.021v26.505c0,0-0.42,1.674-2.094,1.674
				c0,0-1.953,0.419-1.953-1.674v-8.789c0,0,0.07-0.768-0.557-0.768c0,0-0.436,0.024-0.436,0.908v8.648c0,0-0.542,1.708-2.355,1.708
				c-1.812,0-2.303-1.359-2.303-1.359l-8.509-6.138c0,0-1.5-1.778,0-3.278c0,0,0.487-1.116,2.511-0.14l5.093,3.767
				c0,0,0.767,0.906,1.046,0.14L113.091,17.709z"/>
			<path fill="#A6C24B" d="M108.061,34.78c0,0,0.094-3.111,2.765-1.908l1.849,1.97v3.507L108.061,34.78z"/>
			<circle fill="#A6C24B" cx="117.696" cy="8.99" r="3.92"/>
		</g>
	</g>
</g>
<g>
	<g>
		<path fill="#A6C24B" d="M386.498,20.807c0,0-0.263-3.595,2.427-3.595h0.95c0,0-3.05-8.385-32.348-8.385
			c-0.002,0-24.161-12.279-42.916-3.902c-2.367,1.057-9.924,3.031-15.356,3.031c0,0-2.724-0.217-2.724,2.724
			c0,0,0.109,2.287,2.724,2.287c0,0,0.98-0.108,0.98,1.524c0,1.635-0.327,2.287-1.198,2.287c0,0-1.523,0.547-1.523,2.833
			c0,2.286,1.634,4.03,1.634,4.03s2.178,4.791,7.188,4.791c0,0,0.218-13.07,9.911-13.07c9.694,0,11.107,10.889,9.039,14.377h38.229
			c0,0-1.741-14.487,9.043-14.487c10.78,0,10.454,9.694,10.454,9.694v0.436c0,0,0.219,2.505-0.979,3.485
			c0,0-1.272,1.634,0.997,1.634s9.676-1.634,9.676-9.694H386.498z M325.238,12.178h-9.918c0,0-3.084-0.11,0-3.196l9.918-4.959
			V12.178z M352.563,12.178H326.78V4.023c15.646,0,22.479,3.637,24.792,5.07C353.887,10.526,352.563,12.178,352.563,12.178z"/>
		<circle fill="none" stroke="#A6C24B" stroke-width="3" stroke-miterlimit="10" cx="316.28" cy="25.579" r="6.723"/>
		<circle fill="none" stroke="#A6C24B" stroke-width="3" stroke-miterlimit="10" cx="373.075" cy="25.579" r="6.723"/>
	</g>
</g>
<g>
	<g>
		<path fill="#A6C24B" d="M579.326,20.08c0-1.383-0.275-6.641-1.383-6.641c-1.106,0-18.818,0-18.818,0s-1.107,0.553-3.322-2.491
			l-5.812-8.579c0,0-0.277-0.831-5.534,0l-27.397,8.579c0,0-6.365,3.597-6.365,9.687l-0.275,8.738c0,0-0.843,0.188-1.659,0.948
			c0,0-1.109,1.66-2.492-1.108l-1.383-3.043c0,0-1.384-3.227-4.151-1.891l-3.599,1.061c0,0-1.347,0.734,0,3.873l5.536,16.605
			c0,0,3.318,2.49,6.918-1.66c0,0-0.553,2.401,3.598,2.401l4.868-1.188c0,0,3.594-16.588,20.871-4.812l0.9,0.591l21.791-6.125
			c0,0,3.137-17.97,18.817-9.133c0,0,1.938,1.009,2.491-1.156C582.925,24.736,579.326,21.463,579.326,20.08z M514.645,27.937
			c-2.614-14.659,13.394-16.165,13.394-16.165l2.535,10.618L514.645,27.937z M533.741,21.281l-3.363-10.613l8.546-2.764
			c7.747-2.766,8.022,0,8.022,0l4.704,8.026L533.741,21.281z"/>
		<path fill="none" stroke="#A6C24B" stroke-width="4" stroke-linecap="round" stroke-miterlimit="10" d="M511.055,62.756
			c0,0,18.898-1.9,23.626-4.121c4.729-2.221,8.774-4.121,13.501,0c0,0,6.75,3.39,12.15-2.429c0,0,16.2-15.646,28.688-7.085"/>
		<g>
			<path fill="#A6C24B" d="M528.955,42.691c3.078,0,5.575,2.496,5.575,5.574c0,3.079-2.497,5.575-5.575,5.575
				s-5.575-2.496-5.575-5.575C523.38,45.188,525.877,42.691,528.955,42.691 M528.955,38.691c-5.28,0-9.575,4.295-9.575,9.574
				c0,5.279,4.295,9.575,9.575,9.575c5.278,0,9.575-4.296,9.575-9.575C538.531,42.986,534.235,38.691,528.955,38.691L528.955,38.691
				z"/>
		</g>
		<g>
			<path fill="#A6C24B" d="M573.736,29.352c3.116,0,5.644,2.527,5.644,5.645c0,3.115-2.525,5.643-5.644,5.643
				c-3.114,0-5.646-2.527-5.646-5.643C568.092,31.879,570.621,29.352,573.736,29.352 M573.736,25.352
				c-5.317,0-9.646,4.326-9.646,9.645c0,5.317,4.326,9.643,9.646,9.643c5.316,0,9.644-4.325,9.644-9.643
				C583.379,29.678,579.054,25.352,573.736,25.352L573.736,25.352z"/>
		</g>
	</g>
</g>
<g>
	<g>
		<circle fill="none" stroke="#A6C24B" stroke-width="3" stroke-miterlimit="10" cx="-86.079" cy="226.106" r="7.035"/>
		<circle fill="none" stroke="#A6C24B" stroke-width="3" stroke-miterlimit="10" cx="-27.664" cy="226.106" r="7.035"/>
		<path fill="#A6C24B" d="M-10.434,218.745l-5.046-3.028c0,0-1.682-1.177-1.346-2.521c0.336-1.347,2.691,0,2.691,0l1.513,0.335
			c0,0,0.925-2.186-6.392-3.867c-7.279-1.674-14.128-3.195-20.015-5.719c-5.886-2.523-6.223-5.381-21.862-5.381h-20.182
			c0,0-5.636-1.431-19.512,12.445c0,0-0.336,1.009,1.346,1.009h1.685c0,0,1.682-0.042,0.504,2.669h-4.709
			c0,0-2.021,2.208-1.684,4.395c0.336,2.186,0.842,10.765,7.064,10.765c0,0-0.841-13.96,10.427-13.96
			c11.271,0,10.596,14.968,10.596,14.968h37.507c0,0-3.027-15.137,10.427-15.137c13.456,0,9.922,15.137,9.922,15.137h3.366
			c0,0,6.054-1.178,6.054-6.054C-8.08,224.8-7.744,218.745-10.434,218.745z M-42.1,220.823c-0.804-3.918-6.954-5.536-11.964-6.12
			c-0.222,5.589-1.911,9.139-13.602,9.139v-4.854h-6.953c-1.029,0-1.863-1.017-1.863-2.264c0-1.25,0.834-2.264,1.863-2.264h6.953
			v-3.326h-6.953c-1.029,0-1.863-1.012-1.863-2.26c0-1.252,0.834-2.264,1.863-2.264h6.953v-4.855c11.814,0,13.445,3.77,13.617,9.674
			c5.576,0.586,13.84,2.508,15.116,8.747L-42.1,220.823z"/>
	</g>
</g>
<g>
	<g>
		<g>
			<path fill="#A6C24B" d="M182.795,213.751v-1.556c0-1.777-2.501-2.11-2.501-2.11h-6.89c-2.333,0-2.276,1.186-2.276,1.186
				c-0.278,0.407-0.575,0-0.575,0l-5.482-9.187c-2.221-3.555-8-3.555-8-3.555h-18.813h-18.445c-4.222,0-7.111,4.296-7.111,4.296
				l-4.073,8.001c-0.371,0.592-0.521,0.074-0.521,0.074c-0.147-0.445-1.037-0.815-1.037-0.815h-8.295c0,0-2.297,0.889-2.297,2.815
				c0,1.924,2.073,2.815,2.073,2.815h4.89c-5.186,2.963-6.297,9.11-6.297,9.11v17.557c0,3.111,3.333,4.816,3.333,4.816v3.776
				c0,3.037,4.298,4.944,4.298,4.944h9.703c3.853,0,4.815-5.241,4.815-5.241v-2.926h18.964h22.27v3.111
				c0,4.389,4.213,5.056,4.213,5.056h9.5c3.611,0,4.778-4.944,4.778-4.944v-3.944c3.223-1.333,3.167-4.501,3.167-4.501v-17.39
				c0-5.889-6.723-9.723-6.723-9.723h5.334C182.295,215.418,182.795,213.751,182.795,213.751z M111.034,240.754
				c-1.84,0-3.334-1.496-3.334-3.334c0-1.84,1.494-3.334,3.334-3.334c1.837,0,3.334,1.494,3.334,3.334
				C114.367,239.258,112.87,240.754,111.034,240.754z M114.18,229.497h-6.295c-1.476,0-2.67-1.195-2.67-2.671
				c0-1.477,1.194-2.67,2.67-2.67h6.295c1.476,0,2.67,1.193,2.67,2.67C116.85,228.302,115.656,229.497,114.18,229.497z
				 M157.959,239.864c0,2.444-2.52,2.518-2.52,2.518s-29.409,0-31.633,0c-2.221,0-2.147-2.741-2.147-2.741v-14
				c0-1.482,3.854-2.666,3.854-2.666s12.74-2.297,14.594-2.297c1.853,0,14.224,2.521,14.224,2.521c3.63,0.593,3.63,2.443,3.63,2.443
				L157.959,239.864L157.959,239.864z M109.069,216.233l5.26-11.187c0,0,3.038-4.666,8.445-4.666h33.409
				c0,0,5.333-0.223,8.147,4.593l5.926,11.26H109.069z M168.554,240.754c-1.839,0-3.334-1.496-3.334-3.334
				c0-1.84,1.495-3.334,3.334-3.334c1.837,0,3.333,1.494,3.333,3.334C171.887,239.258,170.391,240.754,168.554,240.754z
				 M171.701,229.497h-6.296c-1.475,0-2.669-1.195-2.669-2.671c0-1.477,1.194-2.67,2.669-2.67h6.297c1.476,0,2.67,1.193,2.67,2.67
				C174.371,228.302,173.176,229.497,171.701,229.497z"/>
		</g>
		<g>
			<rect x="123.728" y="224.973" fill="#A6C24B" width="1.515" height="16.638"/>
			<rect x="127.126" y="224.973" fill="#A6C24B" width="1.515" height="16.638"/>
			<rect x="130.525" y="224.973" fill="#A6C24B" width="1.518" height="16.638"/>
			<rect x="133.924" y="224.973" fill="#A6C24B" width="1.516" height="16.638"/>
			<rect x="137.323" y="224.973" fill="#A6C24B" width="1.517" height="16.638"/>
			<rect x="140.721" y="224.973" fill="#A6C24B" width="1.514" height="16.638"/>
			<rect x="144.117" y="224.973" fill="#A6C24B" width="1.518" height="16.638"/>
			<rect x="147.517" y="224.973" fill="#A6C24B" width="1.517" height="16.638"/>
			<rect x="150.916" y="224.973" fill="#A6C24B" width="1.515" height="16.638"/>
			<rect x="154.314" y="224.973" fill="#A6C24B" width="1.516" height="16.638"/>
		</g>
	</g>
</g>
<g>
	<g>
		<path fill="#A6C24B" d="M390.613,219.477c0,0-3.577-3.309-0.804-3.309h4.291c0,0-0.627-4.116-11.357-5.814
			c-10.736-1.702-20.755-5.728-28.271-10.109c0,0-21.951-6.441-39.932,5.455c0,0-2.326,1.523-4.742,1.523
			c-2.414,0-7.871,0.088-7.871,0.088s-2.953-0.09-2.953,2.416c0,2.504,3.312,2.504,3.312,2.504s1.028,0.18,1.028,1.029
			s-2.281,0.516-2.281,0.516s-4.562,0.065-4.562,3.734c0,3.667,0.536,10.288,7.87,10.376h4.386c0,0-0.271-11.361,9.391-11.361
			c9.662,0,9.041,8.229,9.041,12.524h42.791c0,0-0.981-12.436,9.035-12.436c10.021,0,10.107,9.305,10.107,12.436
			c0,0,6.262-0.359,6.62-9.572H390.613z M322.563,211.428h-8.352c0,0-2.64-0.828,0.983-3.35c3.625-2.521,11.819-5.121,11.819-5.121
			L322.563,211.428z M339.32,211.428h-13.188c-1.912,0,0.037-2.325,0.037-2.325l4.114-6.799h9.037V211.428L339.32,211.428z
			 M364.848,211.428h-22.575v-9.124h9.963l12.164,5.546C367.619,209.641,364.848,211.428,364.848,211.428z"/>
		<circle fill="none" stroke="#A6C24B" stroke-width="3" stroke-miterlimit="10" cx="317.995" cy="226.36" r="6.382"/>
		<circle fill="none" stroke="#A6C24B" stroke-width="3" stroke-miterlimit="10" cx="379.521" cy="226.36" r="6.381"/>
	</g>
</g>
<g>
	<g>
		<path fill="#A6C24B" d="M589.927,218.729c0,0-2.523-1.684-0.209-3.577h1.896c0,0-1.686-6.312-13.47-6.312h-5.474l-10.94-8.417
			c0,0-1.472-1.896-3.155-1.896h-21.886c0,0-3.788,1.263-3.788,5.051v5.473h-33.88c0,0-1.685,0.842-1.685,1.893
			c0,0,0,1.264,1.896,1.264c0,0,1.051-1.054,1.051,2.313c0,3.367,0.211,5.26-0.631,5.26c-0.846,0-2.314,0-2.314,0
			s-0.842,0.422-0.842,1.264c0,0.841,3.998,7.785,3.998,7.785s0.211,1.685,3.156,1.685h6.521c0,0,0.631-11.785,9.469-11.785
			c8.842,0,10.523,8.208,10.523,11.785h40.404c0,0,0.629-11.785,10.309-11.785c9.682,0,9.26,10.731,9.26,10.731s4,2.947,5.055-4.839
			C596.241,216.835,589.927,218.729,589.927,218.729z M545.899,213.047h-7.738c0,0-4.631-5.682,0-10.731h7.738V213.047z
			 M565.306,213.047h-16.623v-10.731h7.998l7.574,4.209C564.255,206.524,567.517,210.837,565.306,213.047z"/>
		<circle fill="none" stroke="#A6C24B" stroke-width="3" stroke-miterlimit="10" cx="520.277" cy="228.171" r="6.237"/>
		<circle fill="none" stroke="#A6C24B" stroke-width="3" stroke-miterlimit="10" cx="580.412" cy="228.171" r="6.237"/>
	</g>
</g>
<g>
	<g>
		<circle fill="none" stroke="#A6C24B" stroke-width="3" stroke-miterlimit="10" cx="-85.754" cy="421.207" r="6.721"/>
		<circle fill="none" stroke="#A6C24B" stroke-width="3" stroke-miterlimit="10" cx="-27.097" cy="421.207" r="6.721"/>
		<path fill="#A6C24B" d="M-75.216,426.524h37.356c0,0-1.199-14.736,10.453-14.736c11.652,0,11.481,10.796,9.768,14.736
			c0,0,6.341,0.344,6.341-9.768c0,0,0-0.687-2.398-2.229c-2.398-1.543-3.256-1.029-3.256-3.599c0,0,0.855-0.857-1.543-2.059
			c-2.398-1.199-9.253-2.913-13.88-2.913s-10.882,0-10.882,0l-5.398-6.684c0,0-1.884-1.714-2.57,0
			c-0.686,1.713,0.688,6.341,0.688,6.341s1.542,2.229-0.343,2.569c-1.886,0.344-15.424,3.085-19.193-4.798
			c0,0,0.686-4.874-2.056-4.874s-2.058,4.018-2.058,4.018s-2.057-1.371-15.423,2.399h-8.569c0,0-0.856,1.542,1.371,1.885
			c2.229,0.343,2.399,3.084-0.514,3.599l-4.627,0.517c0,0-2.399,1.198-1.199,4.626c1.199,3.428,4.627,9.938,6.854,9.938
			c0,0-1.199-13.881,10.797-13.881c11.994,0,10.022,13.455,8.567,14.91h1.714V426.524z"/>
	</g>
</g>
<g>
	<g>
		<circle fill="none" stroke="#A6C24B" stroke-width="3" stroke-miterlimit="10" cx="113.809" cy="432.702" r="7.33"/>
		<circle fill="none" stroke="#A6C24B" stroke-width="3" stroke-miterlimit="10" cx="182.256" cy="432.702" r="7.33"/>
		<path fill="#A6C24B" d="M197.94,425.112h-2.425c0,0-3.879-2.061,0-3.514h1.818c0,0,1.938-0.848,0-2.061l-38.418-18.663
			c0,0-3.514-1.818-8.727-1.818c0,0-30.539-1.938-42.417,1.696l-7.028,10.06c0,0-3.152,3.395,0,3.395h3.149
			c0,0,2.546,1.181,0.121,3.196c0,0-1.71,1.407-4.673,1.528l-1.993,0.365c0,0-0.848,0.483-0.848,2.303v6.785
			c0,0,1.816,5.818,4.119,6.544c2.304,0.729,2.424,0.969,2.547-1.091c0.12-2.061,1.332-11.271,10.906-11.271
			c10.907,0,10.666,13.694,10.666,13.694h46.295c0,0-0.97-13.815,11.393-13.815c12.361,0,10.422,13.815,10.422,13.815
			s7.271-0.243,7.271-5.091c0-1.997,0-2.896,0-3.271C200.121,427.901,200.485,425.112,197.94,425.112z M119.772,413.478
			c0,0-8.363-1.696-10.908-5.089c0,0-0.969-1.817-0.728-3.15c0.242-1.333,1.939-1.699,4.728-1.938c2.787-0.242,8.967,0,8.967,0
			L119.772,413.478z M143.887,416.386c-15.026-0.121-22.057-2.423-22.057-2.423l2.182-10.773h19.875V416.386L143.887,416.386z
			 M146.918,416.386V403.19c0,0,19.875-1.738,20.846,14.212C167.764,417.403,155.039,417.598,146.918,416.386z M176.368,419.054
			c0,0-3.395,0.478-5.574-1.641c0,0-1.576-7.074-3.029-7.625c0,0,7.877,1.993,8.604,5.266
			C177.095,418.328,176.368,419.054,176.368,419.054z"/>
	</g>
</g>
<g>
	<g>
		<circle fill="none" stroke="#A6C24B" stroke-width="3" stroke-miterlimit="10" cx="313.947" cy="426.119" r="7.048"/>
		<circle fill="none" stroke="#A6C24B" stroke-width="3" stroke-miterlimit="10" cx="372.469" cy="426.119" r="7.048"/>
		<path fill="#A6C24B" d="M389.729,418.743l-5.054-3.032c0,0-1.687-1.18-1.35-2.526c0.339-1.348,2.695,0,2.695,0l1.519,0.338
			c0,0,0.927-2.188-6.403-3.875c-7.293-1.678-14.152-3.201-20.051-5.729c-5.896-2.528-6.233-5.393-21.903-5.393h-20.219
			c0,0-5.646-1.433-19.547,12.47c0,0-0.336,1.011,1.349,1.011h1.688c0,0,1.684-0.042,0.505,2.675h-4.72c0,0-2.021,2.211-1.686,4.401
			c0.337,2.188,0.842,10.783,7.077,10.783c0,0-0.842-13.984,10.445-13.984c11.289,0,10.614,14.996,10.614,14.996h37.573
			c0,0-3.033-15.165,10.447-15.165c13.479,0,9.938,15.165,9.938,15.165h3.37c0,0,6.065-1.18,6.065-6.065
			C392.089,424.81,392.426,418.743,389.729,418.743z M329.409,410.908h-18.28c0,0,0.675-9.353,5.812-9.268h12.47L329.409,410.908
			L329.409,410.908z M332.695,410.908v-9.268h14.995c0,0,13.563,1.265,13.563,9.268H332.695z"/>
	</g>
</g>
<g>
	<g>
		<circle fill="none" stroke="#A6C24B" stroke-width="3" stroke-miterlimit="10" cx="518.668" cy="436.766" r="7.356"/>
		<circle fill="none" stroke="#A6C24B" stroke-width="3" stroke-miterlimit="10" cx="579.458" cy="436.766" r="7.355"/>
		<path fill="#A6C24B" d="M593.904,425.151c0,0-3.089-0.344-3.089-3.09c0,0-0.345-1.544,1.716-1.373h1.459
			c0,0,2.661-0.601,0.688-2.06c-1.976-1.459-8.61-6.352-21.198-6.352h-4.12l-9.729-9.728c0,0-3.434-4.005-9.384-4.005h-35.131
			c0,0-3.776,1.256-5.149,2.632l-9.612,9.498c0,0-1.829,3.205-1.717,4.578c0,0,0,1.145,1.146,1.145c1.145,0,3.09-0.229,3.09,2.746
			c0,2.975-3.318,3.319-3.318,3.319s-3.09,1.484-3.09,7.437s4.118,5.608,4.118,5.608l6.753,1.257c0,0,1.146-10.869,11.443-10.869
			s10.644,10.412,10.644,10.412h37.992c0,0,3.317-10.3,12.416-10.3s10.301,10.3,10.301,10.3s1.028,1.029,2.573,0
			c1.545-1.03,4.636-5.493,4.636-8.068S593.904,425.151,593.904,425.151z M505.418,413.909c0,0-2.681-0.643,0-3.52l7.038-7.554
			c0,0,3.003-2.746,2.831,0l-3.774,11.071L505.418,413.909L505.418,413.909z M529.021,413.909h-15.021l3.349-10.644
			c0-1.115,1.803-1.649,1.803-1.649h9.784c2.403,0,2.487,1.049,2.487,1.049L529.021,413.909z M531.767,413.909l2.487-11.33
			c0,0,0-0.963,2.489-0.963h10.155c0,0,2.633,0.362,3.146,3.624l1.547,8.669H531.767z M553.909,413.909l-2.315-9.184l-0.943-1.717
			c0,0-0.088-1.89,2.487-0.688l1.976,1.46l6.521,6.181c0,0,1.545,1.545,1.545,3.947L553.909,413.909L553.909,413.909z"/>
	</g>
</g>
<g>
	<g>
		<g>
			<path fill="#FFFFFF" d="M-63.021,614.963h6.646c0,0,1.562-0.083,2.709,1.888c1.15,1.969,5.989,17.23,5.989,17.23
				s1.495,4.795-0.737,5.906c0,0-2.215,1.398-3.612-2.623c-1.395-4.023-3.446-10.913-3.446-10.913s-1.15-0.82-0.984,0.57
				l4.023,13.542c0,0,0.655,1.724-0.82,2.296l-3.611,1.151v23.383c0,0,0.248,3.24-3.24,3.24c0,0-2.586,0.044-2.586-3.24v-22.645
				c0,0,0.101-0.42-0.329-0.42V614.963L-63.021,614.963z"/>
			<path fill="#FFFFFF" d="M-62.94,614.963h-6.646c0,0-1.561-0.083-2.707,1.888c-1.15,1.969-5.991,17.23-5.991,17.23
				s-1.494,4.795,0.738,5.906c0,0,2.215,1.398,3.611-2.623c1.395-4.023,3.447-10.913,3.447-10.913s1.149-0.82,0.984,0.57
				l-4.022,13.542c0,0-0.655,1.724,0.821,2.296l3.611,1.151v23.383c0,0-0.247,3.24,3.24,3.24c0,0,2.585,0.044,2.585-3.24v-22.645
				c0,0-0.101-0.42,0.328-0.42V614.963L-62.94,614.963z"/>
			<circle fill="#FFFFFF" cx="-63.021" cy="607.592" r="6.491"/>
			<g>
				<path fill="#FFFFFF" d="M-39.044,645.459h2.065c0,0,1.283-0.215,2.353,1.71c1.069,1.924,4.134,7.479,4.134,7.479
					s0.927,2.068-0.928,2.353c0,0-0.953,0.634-2.025-1.639l-1.513-3.344c0,0-0.715-0.712-0.798-0.038c0,0-0.253,0.29,0.251,1.341
					c0.503,1.056,2.397,8.541,2.397,8.541s0.208,0.588-0.968,0.588h-1.598v6.768c0,0-0.043,1.388-1.306,1.388
					c0,0-1.195,0.044-1.195-1.197v-7.001c0,0,0.049-0.463-0.869-0.463c0,0-0.667-0.039-0.667,0.422c0,0.46,0,0.209,0,0.209v6.728
					c0,0,0.043,1.303-1.008,1.303c0,0-1.262,0.34-1.262-1.261c0-1.602,0-6.979,0-6.979h-1.599h-1.305c0,0-0.882,0.082-0.294-0.969
					c0.591-1.054,2.862-7.865,2.525-10.89c-0.337-3.028-6.349-9.756-6.349-9.756s-1.375-1.395,0-2.439
					c0.847-0.644,1.851,0.422,1.851,0.422l4.457,5.549c0,0,0.714,1.178,1.934,1.178L-39.044,645.459z"/>
				<circle fill="#FFFFFF" cx="-39.047" cy="641.884" r="3.039"/>
			</g>
		</g>
		<g>
			<path fill="#FFFFFF" d="M-81.956,605.464c0,3.85-3.119,6.972-6.969,6.972s-6.969-3.122-6.969-6.972
				c0-3.847,3.12-6.969,6.969-6.969S-81.956,601.617-81.956,605.464z"/>
			<g>
				<path fill="#FFFFFF" d="M-88.984,613.832h6.157c0,0,8.363-0.582,8.363,8.362v14.984c0,0,0.349,3.138-2.788,3.138
					c-3.135,0-2.904-2.672-2.904-2.672v-13.593c0,0,0.465-0.695-0.581-0.695c-1.044,0-0.929,0.813-0.929,0.813v42.747
					c0,0,0.351,3.077-3.08,3.077c-3.426,0-3.542-2.729-3.542-2.729v-23.001c0,0,0.233-1.277-0.695-1.277L-88.984,613.832
					L-88.984,613.832z"/>
				<path fill="#FFFFFF" d="M-88.867,613.832h-6.155c0,0-8.365-0.582-8.365,8.362v14.984c0,0-0.349,3.138,2.789,3.138
					c3.136,0,2.904-2.672,2.904-2.672v-13.593c0,0-0.465-0.695,0.581-0.695c1.044,0,0.928,0.813,0.928,0.813v42.747
					c0,0-0.35,3.077,3.078,3.077c3.427,0,3.544-2.729,3.544-2.729v-23.001c0,0-0.233-1.277,0.694-1.277L-88.867,613.832
					L-88.867,613.832z"/>
			</g>
		</g>
	</g>
</g>
<g>
	<g>
		<path fill="#FFFFFF" d="M180.602,628.09c-0.43-0.85-1.604-1.814-1.604-1.814l-4.849-12.905h-0.002
			c-1.006-2.443-3.967-3.732-5.26-3.732h-23.771c-1.291,0-4.254,1.289-5.258,3.732l-4.85,12.905c0,0-1.176,0.967-1.605,1.814
			c-0.429,0.848-0.897,1.604-0.897,7.325c0,5.579,1.125,7.562,2.473,8.251l1.062,0.6v5.18c0,1.682,0.399,2.18,2.006,2.18h3.6
			c1.605,0,2.006-0.498,2.006-2.18v-5.18h26.703v5.18c0,1.682,0.4,2.18,2.006,2.18h3.601c1.604,0,2.006-0.498,2.006-2.18v-5.18
			l1.063-0.6c1.349-0.688,2.472-2.672,2.472-8.251C181.5,629.694,181.032,628.938,180.602,628.09z M141.985,638.104
			c-1.725,0-3.127-1.433-3.127-3.189s1.402-3.188,3.127-3.188c1.726,0,3.127,1.433,3.127,3.188
			C145.112,636.674,143.709,638.104,141.985,638.104z M172.137,638.104c-1.723,0-3.127-1.433-3.127-3.189s1.404-3.188,3.127-3.188
			c1.725,0,3.129,1.433,3.129,3.188C175.266,636.674,173.862,638.104,172.137,638.104z M175.618,626.274h-37.23
			c0,0-0.889,0.085-0.617-0.889c0.228-0.822,3.426-8.925,4.099-11.148c0.271-0.768,1.817-2.522,3.905-2.395h22.457
			c2.088-0.13,3.634,1.627,3.906,2.395c0.672,2.225,3.871,10.326,4.1,11.148C176.506,626.359,175.618,626.274,175.618,626.274z"/>
		<path fill="#FFFFFF" d="M98.502,651.631h89c1.104,0,2,0.896,2,2c0,1.104-0.896,2-2,2h-89c-1.104,0-2-0.896-2-2
			C96.502,652.525,97.399,651.631,98.502,651.631z"/>
		<g>
			<path fill="#FFFFFF" d="M113.176,614.196l-11.438-11.579c0,0-2.017-1.782,0-3.627c1.237-1.132,2.65,0,2.65,0l11.579,11.718h4.604
				l10.185-10.184c0,0,1.953-2.094,3.348-0.696c1.396,1.396,0,3.348,0,3.348l-11.299,11.021v26.505c0,0-0.42,1.675-2.094,1.675
				c0,0-1.953,0.418-1.953-1.675v-8.789c0,0,0.07-0.769-0.557-0.769c0,0-0.436,0.024-0.436,0.908v8.647c0,0-0.542,1.708-2.355,1.708
				c-1.812,0-2.303-1.357-2.303-1.357l-8.509-6.14c0,0-1.5-1.776,0-3.276c0,0,0.487-1.117,2.511-0.142l5.093,3.769
				c0,0,0.767,0.905,1.046,0.14L113.176,614.196z"/>
			<path fill="#FFFFFF" d="M108.147,631.267c0,0,0.094-3.11,2.765-1.907l1.849,1.97v3.508L108.147,631.267z"/>
			<circle fill="#FFFFFF" cx="117.782" cy="605.478" r="3.92"/>
		</g>
	</g>
</g>
<g>
	<path fill="#FFFFFF" d="M386.481,617.342c0,0-0.262-3.596,2.428-3.596h0.949c0,0-3.049-8.385-32.348-8.385
		c-0.002,0-24.16-12.279-42.916-3.902c-2.367,1.059-9.924,3.031-15.355,3.031c0,0-2.725-0.217-2.725,2.725
		c0,0,0.109,2.287,2.725,2.287c0,0,0.98-0.107,0.98,1.523c0,1.635-0.328,2.287-1.199,2.287c0,0-1.522,0.547-1.522,2.834
		c0,2.285,1.633,4.027,1.633,4.027s2.178,4.791,7.188,4.791c0,0,0.218-13.068,9.91-13.068c9.695,0,11.107,10.889,9.039,14.377h38.23
		c0,0-1.742-14.486,9.043-14.486c10.78,0,10.453,9.693,10.453,9.693v0.436c0,0,0.219,2.506-0.979,3.486c0,0-1.273,1.633,0.998,1.633
		c2.27,0,9.676-1.633,9.676-9.693H386.481L386.481,617.342z M325.222,608.713h-9.918c0,0-3.084-0.109,0-3.195l9.918-4.959V608.713z
		 M352.548,608.713h-25.783v-8.154c15.646,0,22.479,3.637,24.791,5.068C353.87,607.061,352.548,608.713,352.548,608.713z"/>
	<circle fill="none" stroke="#FFFFFF" stroke-width="3" stroke-miterlimit="10" cx="316.265" cy="622.113" r="6.723"/>
	<circle fill="none" stroke="#FFFFFF" stroke-width="3" stroke-miterlimit="10" cx="373.06" cy="622.113" r="6.723"/>
</g>
<g>
	<g>
		<path fill="#FFFFFF" d="M579.26,616.62c0-1.383-0.274-6.641-1.383-6.641c-1.107,0-18.817,0-18.817,0s-1.107,0.553-3.322-2.491
			l-5.812-8.579c0,0-0.278-0.831-5.534,0l-27.398,8.579c0,0-6.365,3.597-6.365,9.687l-0.274,8.738c0,0-0.845,0.188-1.66,0.947
			c0,0-1.109,1.659-2.492-1.107l-1.383-3.043c0,0-1.383-3.227-4.15-1.891l-3.6,1.061c0,0-1.346,0.734,0,3.873l5.537,16.605
			c0,0,3.317,2.489,6.918-1.66c0,0-0.553,2.399,3.598,2.399l4.867-1.188c0,0,3.594-16.588,20.871-4.812l0.9,0.593l21.791-6.125
			c0,0,3.137-17.972,18.817-9.134c0,0,1.938,1.009,2.492-1.155C582.859,621.276,579.26,618.003,579.26,616.62z M514.578,624.477
			c-2.613-14.659,13.393-16.166,13.393-16.166l2.537,10.619L514.578,624.477z M533.676,617.821l-3.364-10.613l8.547-2.764
			c7.746-2.767,8.022,0,8.022,0l4.703,8.024L533.676,617.821z"/>
		<path fill="none" stroke="#FFFFFF" stroke-width="4" stroke-linecap="round" stroke-miterlimit="10" d="M510.988,659.296
			c0,0,18.9-1.899,23.627-4.121c4.729-2.221,8.773-4.121,13.5,0c0,0,6.75,3.392,12.15-2.429c0,0,16.2-15.646,28.688-7.085"/>
		<g>
			<path fill="#FFFFFF" d="M528.889,639.231c3.079,0,5.575,2.495,5.575,5.573s-2.496,5.574-5.575,5.574
				c-3.078,0-5.574-2.496-5.574-5.574S525.811,639.231,528.889,639.231 M528.889,635.231c-5.279,0-9.574,4.295-9.574,9.573
				s4.295,9.574,9.574,9.574c5.278,0,9.575-4.296,9.575-9.574C538.465,639.526,534.17,635.231,528.889,635.231L528.889,635.231z"/>
		</g>
		<g>
			<path fill="#FFFFFF" d="M573.67,625.893c3.117,0,5.644,2.526,5.644,5.646c0,3.114-2.525,5.644-5.644,5.644
				c-3.115,0-5.645-2.526-5.645-5.644C568.025,628.419,570.555,625.893,573.67,625.893 M573.67,621.893
				c-5.317,0-9.645,4.325-9.645,9.646c0,5.317,4.326,9.644,9.645,9.644c5.316,0,9.644-4.325,9.644-9.644
				C583.312,626.218,578.988,621.893,573.67,621.893L573.67,621.893z"/>
		</g>
	</g>
</g>
<g>
	<g>
		<circle fill="none" stroke="#FFFFFF" stroke-width="3" stroke-miterlimit="10" cx="-85.979" cy="826.12" r="7.035"/>
		<circle fill="none" stroke="#FFFFFF" stroke-width="3" stroke-miterlimit="10" cx="-27.563" cy="826.12" r="7.035"/>
		<path fill="#FFFFFF" d="M-10.334,818.759l-5.046-3.027c0,0-1.682-1.177-1.346-2.521c0.336-1.348,2.691,0,2.691,0l1.513,0.336
			c0,0,0.925-2.188-6.392-3.867c-7.279-1.674-14.128-3.195-20.015-5.719c-5.886-2.523-6.223-5.383-21.862-5.383h-20.181
			c0,0-5.636-1.431-19.512,12.445c0,0-0.336,1.009,1.346,1.009h1.685c0,0,1.682-0.042,0.504,2.669h-4.71
			c0,0-2.021,2.208-1.684,4.396c0.336,2.186,0.842,10.765,7.064,10.765c0,0-0.841-13.96,10.427-13.96
			c11.271,0,10.596,14.969,10.596,14.969h37.507c0,0-3.027-15.138,10.427-15.138c13.456,0,9.922,15.138,9.922,15.138h3.366
			c0,0,6.054-1.179,6.054-6.055C-7.979,824.814-7.644,818.759-10.334,818.759z M-42,820.837c-0.804-3.918-6.954-5.535-11.964-6.119
			c-0.222,5.589-1.911,9.139-13.602,9.139v-4.854h-6.952c-1.029,0-1.863-1.019-1.863-2.266c0-1.25,0.834-2.264,1.863-2.264h6.953
			v-3.326h-6.953c-1.029,0-1.863-1.012-1.863-2.26c0-1.253,0.834-2.265,1.863-2.265h6.953v-4.854
			c11.814,0,13.445,3.771,13.617,9.674c5.576,0.586,13.84,2.508,15.116,8.747L-42,820.837z"/>
	</g>
</g>
<g>
	<g>
		<g>
			<path fill="#FFFFFF" d="M182.835,813.766v-1.558c0-1.775-2.501-2.108-2.501-2.108h-6.89c-2.333,0-2.276,1.186-2.276,1.186
				c-0.278,0.407-0.575,0-0.575,0l-5.482-9.187c-2.221-3.557-8-3.557-8-3.557h-18.814h-18.445c-4.222,0-7.111,4.297-7.111,4.297
				l-4.073,8.001c-0.371,0.593-0.521,0.073-0.521,0.073c-0.147-0.444-1.037-0.814-1.037-0.814h-8.295c0,0-2.297,0.89-2.297,2.814
				s2.073,2.815,2.073,2.815h4.89c-5.186,2.963-6.297,9.109-6.297,9.109v17.558c0,3.11,3.333,4.815,3.333,4.815v3.775
				c0,3.037,4.298,4.943,4.298,4.943h9.703c3.853,0,4.815-5.24,4.815-5.24v-2.927h18.964h22.27v3.111
				c0,4.389,4.213,5.056,4.213,5.056h9.5c3.611,0,4.778-4.943,4.778-4.943v-3.943c3.223-1.334,3.167-4.502,3.167-4.502v-17.387
				c0-5.89-6.723-9.724-6.723-9.724h5.334C182.335,815.433,182.835,813.766,182.835,813.766z M111.073,840.769
				c-1.84,0-3.334-1.496-3.334-3.334c0-1.84,1.494-3.334,3.334-3.334c1.837,0,3.334,1.494,3.334,3.334
				C114.407,839.272,112.91,840.769,111.073,840.769z M114.22,829.511h-6.295c-1.476,0-2.67-1.194-2.67-2.671
				c0-1.478,1.194-2.67,2.67-2.67h6.295c1.476,0,2.67,1.192,2.67,2.67C116.889,828.316,115.695,829.511,114.22,829.511z
				 M158,839.879c0,2.443-2.52,2.519-2.52,2.519s-29.409,0-31.633,0c-2.221,0-2.147-2.74-2.147-2.74v-14
				c0-1.482,3.854-2.666,3.854-2.666s12.74-2.298,14.594-2.298c1.853,0,14.224,2.521,14.224,2.521c3.63,0.594,3.63,2.443,3.63,2.443
				L158,839.879L158,839.879z M109.108,816.248l5.26-11.188c0,0,3.038-4.666,8.445-4.666h33.409c0,0,5.333-0.224,8.147,4.594
				l5.926,11.26H109.108z M168.594,840.769c-1.839,0-3.334-1.496-3.334-3.334c0-1.84,1.495-3.334,3.334-3.334
				c1.837,0,3.333,1.494,3.333,3.334C171.927,839.272,170.43,840.769,168.594,840.769z M171.741,829.511h-6.297
				c-1.475,0-2.669-1.194-2.669-2.671c0-1.478,1.194-2.67,2.669-2.67h6.297c1.476,0,2.67,1.192,2.67,2.67
				C174.411,828.316,173.216,829.511,171.741,829.511z"/>
		</g>
		<g>
			<rect x="123.767" y="824.986" fill="#FFFFFF" width="1.515" height="16.639"/>
			<rect x="127.167" y="824.986" fill="#FFFFFF" width="1.515" height="16.639"/>
			<rect x="130.563" y="824.986" fill="#FFFFFF" width="1.518" height="16.639"/>
			<rect x="133.964" y="824.986" fill="#FFFFFF" width="1.516" height="16.639"/>
			<rect x="137.362" y="824.986" fill="#FFFFFF" width="1.517" height="16.639"/>
			<rect x="140.761" y="824.986" fill="#FFFFFF" width="1.514" height="16.639"/>
			<rect x="144.157" y="824.986" fill="#FFFFFF" width="1.518" height="16.639"/>
			<rect x="147.556" y="824.986" fill="#FFFFFF" width="1.517" height="16.639"/>
			<rect x="150.956" y="824.986" fill="#FFFFFF" width="1.515" height="16.639"/>
			<rect x="154.354" y="824.986" fill="#FFFFFF" width="1.516" height="16.639"/>
		</g>
	</g>
</g>
<g>
	<g>
		<path fill="#FFFFFF" d="M390.659,819.541c0,0-3.577-3.31-0.805-3.31h4.291c0,0-0.627-4.115-11.357-5.812
			c-10.735-1.702-20.754-5.729-28.271-10.109c0,0-21.951-6.439-39.932,5.455c0,0-2.326,1.521-4.742,1.521
			c-2.414,0-7.871,0.09-7.871,0.09s-2.953-0.092-2.953,2.416c0,2.504,3.312,2.504,3.312,2.504s1.028,0.18,1.028,1.027
			c0,0.851-2.281,0.518-2.281,0.518s-4.562,0.064-4.562,3.732s0.537,10.289,7.871,10.377h4.385c0,0-0.27-11.36,9.392-11.36
			s9.041,8.229,9.041,12.522h42.791c0,0-0.982-12.436,9.034-12.436c10.021,0,10.107,9.305,10.107,12.436
			c0,0,6.262-0.357,6.621-9.571H390.659z M322.608,811.493h-8.352c0,0-2.64-0.828,0.983-3.351c3.625-2.521,11.82-5.121,11.82-5.121
			L322.608,811.493z M339.366,811.493h-13.188c-1.912,0,0.037-2.324,0.037-2.324l4.114-6.799h9.037V811.493L339.366,811.493z
			 M364.894,811.493h-22.576v-9.123h9.963l12.164,5.545C367.665,809.705,364.894,811.493,364.894,811.493z"/>
		<circle fill="none" stroke="#FFFFFF" stroke-width="3" stroke-miterlimit="10" cx="318.04" cy="826.425" r="6.382"/>
		<circle fill="none" stroke="#FFFFFF" stroke-width="3" stroke-miterlimit="10" cx="379.565" cy="826.425" r="6.381"/>
	</g>
</g>
<g>
	<g>
		<path fill="#FFFFFF" d="M589.943,818.725c0,0-2.522-1.684-0.209-3.577h1.896c0,0-1.687-6.312-13.472-6.312h-5.473l-10.94-8.417
			c0,0-1.472-1.896-3.154-1.896h-21.887c0,0-3.787,1.265-3.787,5.052v5.474h-33.881c0,0-1.685,0.842-1.685,1.894
			c0,0,0,1.265,1.896,1.265c0,0,1.051-1.056,1.051,2.312c0,3.367,0.211,5.261-0.631,5.261c-0.847,0-2.314,0-2.314,0
			s-0.842,0.422-0.842,1.265c0,0.841,3.998,7.784,3.998,7.784s0.211,1.686,3.156,1.686h6.521c0,0,0.631-11.784,9.469-11.784
			c8.843,0,10.523,8.207,10.523,11.784h40.404c0,0,0.629-11.784,10.309-11.784c9.682,0,9.26,10.73,9.26,10.73s4,2.946,5.056-4.841
			C596.258,816.831,589.943,818.725,589.943,818.725z M545.916,813.042h-7.738c0,0-4.631-5.683,0-10.731h7.738V813.042z
			 M565.322,813.042h-16.623v-10.731h7.998l7.574,4.209C564.271,806.52,567.533,810.833,565.322,813.042z"/>
		<circle fill="none" stroke="#FFFFFF" stroke-width="3" stroke-miterlimit="10" cx="520.295" cy="828.166" r="6.237"/>
		<circle fill="none" stroke="#FFFFFF" stroke-width="3" stroke-miterlimit="10" cx="580.43" cy="828.166" r="6.237"/>
	</g>
</g>
<g>
	<g>
		<circle fill="none" stroke="#FFFFFF" stroke-width="3" stroke-miterlimit="10" cx="-85.755" cy="1021.208" r="6.721"/>
		<circle fill="none" stroke="#FFFFFF" stroke-width="3" stroke-miterlimit="10" cx="-27.097" cy="1021.208" r="6.721"/>
		<path fill="#FFFFFF" d="M-75.216,1026.526h37.356c0,0-1.199-14.736,10.453-14.736c11.652,0,11.481,10.796,9.768,14.736
			c0,0,6.341,0.344,6.341-9.768c0,0,0-0.687-2.398-2.229c-2.398-1.543-3.256-1.029-3.256-3.599c0,0,0.855-0.857-1.543-2.059
			c-2.398-1.199-9.253-2.913-13.88-2.913s-10.882,0-10.882,0l-5.398-6.684c0,0-1.884-1.714-2.57,0
			c-0.686,1.713,0.688,6.341,0.688,6.341s1.542,2.229-0.343,2.569c-1.886,0.344-15.424,3.085-19.193-4.799
			c0,0,0.686-4.873-2.056-4.873s-2.058,4.018-2.058,4.018s-2.057-1.371-15.423,2.398h-8.569c0,0-0.856,1.543,1.371,1.886
			c2.229,0.343,2.399,3.084-0.514,3.599l-4.627,0.516c0,0-2.399,1.199-1.199,4.627c1.199,3.428,4.627,9.938,6.854,9.938
			c0,0-1.199-13.881,10.797-13.881c11.994,0,10.022,13.455,8.567,14.91h1.714V1026.526z"/>
	</g>
</g>
<g>
	<g>
		<circle fill="none" stroke="#FFFFFF" stroke-width="3" stroke-miterlimit="10" cx="113.869" cy="1032.75" r="7.33"/>
		<circle fill="none" stroke="#FFFFFF" stroke-width="3" stroke-miterlimit="10" cx="182.317" cy="1032.75" r="7.33"/>
		<path fill="#FFFFFF" d="M198,1025.159h-2.425c0,0-3.879-2.061,0-3.514h1.818c0,0,1.938-0.848,0-2.061l-38.418-18.663
			c0,0-3.514-1.818-8.727-1.818c0,0-30.539-1.938-42.417,1.696l-7.028,10.06c0,0-3.152,3.395,0,3.395h3.149
			c0,0,2.546,1.181,0.121,3.196c0,0-1.71,1.407-4.673,1.528l-1.993,0.365c0,0-0.848,0.483-0.848,2.303v6.785
			c0,0,1.816,5.817,4.119,6.544c2.304,0.729,2.424,0.969,2.547-1.091c0.12-2.061,1.332-11.271,10.906-11.271
			c10.907,0,10.666,13.694,10.666,13.694h46.295c0,0-0.97-13.815,11.393-13.815c12.361,0,10.422,13.815,10.422,13.815
			s7.271-0.243,7.271-5.091c0-1.997,0-2.896,0-3.271C200.183,1027.948,200.545,1025.159,198,1025.159z M119.832,1013.525
			c0,0-8.363-1.696-10.908-5.089c0,0-0.969-1.817-0.728-3.15c0.242-1.333,1.939-1.699,4.728-1.938c2.787-0.242,8.967,0,8.967,0
			L119.832,1013.525z M143.948,1016.434c-15.026-0.121-22.057-2.423-22.057-2.423l2.182-10.773h19.875V1016.434L143.948,1016.434z
			 M146.979,1016.434v-13.196c0,0,19.875-1.737,20.846,14.212C167.825,1017.45,155.1,1017.646,146.979,1016.434z M176.428,1019.102
			c0,0-3.395,0.478-5.574-1.641c0,0-1.576-7.074-3.029-7.625c0,0,7.877,1.993,8.604,5.266
			C177.156,1018.375,176.428,1019.102,176.428,1019.102z"/>
	</g>
</g>
<g>
	<g>
		<circle fill="none" stroke="#FFFFFF" stroke-width="3" stroke-miterlimit="10" cx="313.951" cy="1026.157" r="7.048"/>
		<circle fill="none" stroke="#FFFFFF" stroke-width="3" stroke-miterlimit="10" cx="372.473" cy="1026.157" r="7.048"/>
		<path fill="#FFFFFF" d="M389.734,1018.781l-5.055-3.032c0,0-1.687-1.18-1.349-2.526c0.339-1.348,2.695,0,2.695,0l1.519,0.338
			c0,0,0.926-2.188-6.404-3.875c-7.293-1.678-14.152-3.201-20.051-5.729c-5.896-2.528-6.232-5.393-21.902-5.393h-20.219
			c0,0-5.646-1.433-19.547,12.47c0,0-0.336,1.011,1.348,1.011h1.688c0,0,1.685-0.042,0.507,2.675h-4.72c0,0-2.022,2.211-1.686,4.401
			c0.336,2.188,0.842,10.783,7.076,10.783c0,0-0.842-13.984,10.444-13.984c11.291,0,10.615,14.996,10.615,14.996h37.574
			c0,0-3.033-15.165,10.447-15.165c13.479,0,9.938,15.165,9.938,15.165h3.369c0,0,6.066-1.18,6.066-6.065
			C392.094,1024.848,392.43,1018.781,389.734,1018.781z M329.414,1010.946h-18.281c0,0,0.674-9.353,5.811-9.268h12.471V1010.946
			L329.414,1010.946z M332.699,1010.946v-9.268h14.996c0,0,13.562,1.265,13.562,9.268H332.699z"/>
	</g>
</g>
<g>
	<g>
		<circle fill="none" stroke="#FFFFFF" stroke-width="3" stroke-miterlimit="10" cx="518.627" cy="1036.704" r="7.356"/>
		<circle fill="none" stroke="#FFFFFF" stroke-width="3" stroke-miterlimit="10" cx="579.418" cy="1036.704" r="7.355"/>
		<path fill="#FFFFFF" d="M593.863,1025.089c0,0-3.088-0.344-3.088-3.09c0,0-0.346-1.544,1.715-1.373h1.459
			c0,0,2.662-0.601,0.688-2.06c-1.975-1.459-8.609-6.352-21.197-6.352h-4.121l-9.729-9.728c0,0-3.434-4.005-9.383-4.005h-35.131
			c0,0-3.776,1.256-5.149,2.632l-9.613,9.498c0,0-1.828,3.205-1.717,4.578c0,0,0,1.145,1.146,1.145c1.144,0,3.09-0.229,3.09,2.746
			s-3.319,3.319-3.319,3.319s-3.091,1.484-3.091,7.437s4.119,5.608,4.119,5.608l6.754,1.257c0,0,1.146-10.869,11.443-10.869
			s10.644,10.412,10.644,10.412h37.991c0,0,3.318-10.3,12.416-10.3c9.099,0,10.302,10.3,10.302,10.3s1.028,1.029,2.573,0
			c1.545-1.03,4.636-5.493,4.636-8.068C597.3,1025.603,593.863,1025.089,593.863,1025.089z M505.377,1013.847c0,0-2.68-0.643,0-3.52
			l7.039-7.554c0,0,3.002-2.746,2.83,0l-3.774,11.071L505.377,1013.847L505.377,1013.847z M528.98,1013.847h-15.021l3.349-10.644
			c0-1.115,1.803-1.649,1.803-1.649h9.785c2.401,0,2.487,1.05,2.487,1.05L528.98,1013.847z M531.727,1013.847l2.487-11.33
			c0,0,0-0.963,2.488-0.963h10.156c0,0,2.633,0.362,3.146,3.624l1.545,8.669H531.727z M553.869,1013.847l-2.315-9.184l-0.943-1.717
			c0,0-0.088-1.89,2.486-0.688l1.977,1.46l6.521,6.181c0,0,1.545,1.545,1.545,3.947L553.869,1013.847L553.869,1013.847z"/>
	</g>
</g>
</svg>
